<?xml version="1.0" encoding="UTF-8"?>
<svg xmlns="http://www.w3.org/2000/svg" xmlns:inkscape="http://www.inkscape.org/namespaces/inkscape" xmlns:sodipodi="http://sodipodi.sourceforge.net/DTD/sodipodi-0.dtd"
  width="413" height="900" viewBox="0 0 826 1800"
  data-hand="cursive-modern" data-glyph="e" data-units="1000" data-origin="150" data-baseline="1150">
  <sodipodi:namedview id="namedview" inkscape:current-layer="strokes" inkscape:document-units="px"/>
  <g inkscape:groupmode="layer" id="ruling" inkscape:label="ruling" sodipodi:insensitive="true">
    <line x1="0" y1="1550" x2="826" y2="1550" stroke="#e3e8ee" stroke-width="1"/>
    <line x1="0" y1="1450" x2="826" y2="1450" stroke="#e3e8ee" stroke-width="1"/>
    <line x1="0" y1="1350" x2="826" y2="1350" stroke="#e3e8ee" stroke-width="1"/>
    <line x1="0" y1="1250" x2="826" y2="1250" stroke="#e3e8ee" stroke-width="1"/>
    <line x1="0" y1="1050" x2="826" y2="1050" stroke="#e3e8ee" stroke-width="1"/>
    <line x1="0" y1="950" x2="826" y2="950" stroke="#e3e8ee" stroke-width="1"/>
    <line x1="0" y1="850" x2="826" y2="850" stroke="#e3e8ee" stroke-width="1"/>
    <line x1="0" y1="750" x2="826" y2="750" stroke="#e3e8ee" stroke-width="1"/>
    <line x1="0" y1="550" x2="826" y2="550" stroke="#e3e8ee" stroke-width="1"/>
    <line x1="0" y1="450" x2="826" y2="450" stroke="#e3e8ee" stroke-width="1"/>
    <line x1="0" y1="350" x2="826" y2="350" stroke="#e3e8ee" stroke-width="1"/>
    <line x1="0" y1="250" x2="826" y2="250" stroke="#e3e8ee" stroke-width="1"/>
    <line x1="150" y1="0" x2="150" y2="1800" stroke="#e3e8ee" stroke-width="1"/>
    <line x1="250" y1="0" x2="250" y2="1800" stroke="#e3e8ee" stroke-width="1"/>
    <line x1="350" y1="0" x2="350" y2="1800" stroke="#e3e8ee" stroke-width="1"/>
    <line x1="450" y1="0" x2="450" y2="1800" stroke="#e3e8ee" stroke-width="1"/>
    <line x1="550" y1="0" x2="550" y2="1800" stroke="#e3e8ee" stroke-width="1"/>
    <line x1="650" y1="0" x2="650" y2="1800" stroke="#e3e8ee" stroke-width="1"/>
    <line x1="150" y1="0" x2="150" y2="1800" stroke="#9aa8b8" stroke-width="2"/>
    <line x1="676" y1="0" x2="676" y2="1800" stroke="#9aa8b8" stroke-width="2" stroke-dasharray="12 12"/>
    <line x1="0" y1="150" x2="826" y2="150" stroke="#5b7fa6" stroke-width="2"/>
    <text x="8" y="142" font-family="sans-serif" font-size="28" fill="#5b7fa6">top 1000</text>
    <line x1="0" y1="650" x2="826" y2="650" stroke="#5b7fa6" stroke-width="2" stroke-dasharray="24 16"/>
    <text x="8" y="642" font-family="sans-serif" font-size="28" fill="#5b7fa6">mid 500</text>
    <line x1="0" y1="1150" x2="826" y2="1150" stroke="#1f3a5f" stroke-width="2"/>
    <text x="8" y="1142" font-family="sans-serif" font-size="28" fill="#1f3a5f">base 0</text>
    <line x1="0" y1="1650" x2="826" y2="1650" stroke="#9aa8b8" stroke-width="2"/>
    <text x="8" y="1642" font-family="sans-serif" font-size="28" fill="#9aa8b8">tail -500</text>
  </g>
  <g inkscape:groupmode="layer" id="outline-body" inkscape:label="outline (body)" sodipodi:insensitive="true">
    <path d="M 640 1066 C 653 1049 649 1032 630 1017 C 611 1002 596 1001 576 1021 C 531 1066 505 1089 445 1089 C 356 1089 301 1016 301 906 C 301 784 374 711 461 711 C 509 711 540 729 540 771 C 540 851 406 890 295 889 L 295 959 C 486 957 629 892 629 764 C 629 675 563 631 466 631 C 319 631 213 744 213 922 C 213 1056 285 1169 443 1169 C 508 1169 589 1142 640 1066 Z" fill="#c9d3df" fill-rule="evenodd"/>
  </g>
  <g inkscape:groupmode="layer" id="outline-reach" inkscape:label="outline (reach)" sodipodi:insensitive="true">
    <path d="M 640 1066 C 653 1049 649 1032 630 1017 C 611 1002 596 1001 576 1021 C 531 1066 505 1089 445 1089 C 356 1089 301 1016 301 906 C 301 784 374 711 461 711 C 509 711 540 729 540 771 C 540 851 406 890 295 889 L 295 959 C 486 957 629 892 629 764 C 629 675 563 631 466 631 C 319 631 213 744 213 922 C 213 1056 285 1169 443 1169 C 508 1169 589 1142 640 1066 Z" fill="none" stroke="#d99a9a" stroke-width="3" stroke-dasharray="10 8" fill-rule="evenodd"/>
  </g>
  <g inkscape:groupmode="layer" id="notes" inkscape:label="notes" sodipodi:insensitive="true">
    <text x="150" y="40" font-family="sans-serif" font-size="30" fill="#1f3a5f">School Skills Cursive, unlooped — e</text>
    <text x="150" y="76" font-family="sans-serif" font-size="22" fill="#5b7fa6">Draw in the "strokes" layer with the pen tool: one open path per pen stroke, in the order the pen makes them. Grey is the shape; red dashes are how far the tall or hanging part goes.</text>
    <text x="150" y="1780" font-family="sans-serif" font-size="22" fill="#5b7fa6">Ink starts wherever you like: the ingest sets the side bearings.</text>
  </g>
  <g inkscape:groupmode="layer" id="strokes" inkscape:label="strokes">
    <path id="body" inkscape:label="body" d="M 150 918 C 240 905 350 830 389 723.2 C 362.7 676.3 327.1 650 290 650 C 212.7 650 150 761.9 150 900 C 150 1038.1 212.7 1150 290 1150 C 335.7 1150 378.5 1110.2 404.7 1043.4" fill="none" stroke="#111" stroke-width="44" stroke-linecap="round" stroke-linejoin="round"/>
    <path id="tail" inkscape:label="tail" d="M 404.7 1043.4 C 487.2 1032.9 536.7 927.9 554.7 833.4" fill="none" stroke="#111" stroke-width="44" stroke-linecap="round" stroke-linejoin="round"/>
  </g>
</svg>
