<?xml version="1.0" encoding="UTF-8"?>
<svg xmlns="http://www.w3.org/2000/svg" xmlns:inkscape="http://www.inkscape.org/namespaces/inkscape" xmlns:sodipodi="http://sodipodi.sourceforge.net/DTD/sodipodi-0.dtd"
  width="605.5" height="900" viewBox="0 0 1211 1800"
  data-hand="cursive-modern" data-glyph="U_" data-units="1000" data-origin="150" data-baseline="1150">
  <sodipodi:namedview id="namedview" inkscape:current-layer="strokes" inkscape:document-units="px"/>
  <g inkscape:groupmode="layer" id="ruling" inkscape:label="ruling" sodipodi:insensitive="true">
    <line x1="0" y1="1550" x2="1211" y2="1550" stroke="#e3e8ee" stroke-width="1"/>
    <line x1="0" y1="1450" x2="1211" y2="1450" stroke="#e3e8ee" stroke-width="1"/>
    <line x1="0" y1="1350" x2="1211" y2="1350" stroke="#e3e8ee" stroke-width="1"/>
    <line x1="0" y1="1250" x2="1211" y2="1250" stroke="#e3e8ee" stroke-width="1"/>
    <line x1="0" y1="1050" x2="1211" y2="1050" stroke="#e3e8ee" stroke-width="1"/>
    <line x1="0" y1="950" x2="1211" y2="950" stroke="#e3e8ee" stroke-width="1"/>
    <line x1="0" y1="850" x2="1211" y2="850" stroke="#e3e8ee" stroke-width="1"/>
    <line x1="0" y1="750" x2="1211" y2="750" stroke="#e3e8ee" stroke-width="1"/>
    <line x1="0" y1="550" x2="1211" y2="550" stroke="#e3e8ee" stroke-width="1"/>
    <line x1="0" y1="450" x2="1211" y2="450" stroke="#e3e8ee" stroke-width="1"/>
    <line x1="0" y1="350" x2="1211" y2="350" stroke="#e3e8ee" stroke-width="1"/>
    <line x1="0" y1="250" x2="1211" y2="250" stroke="#e3e8ee" stroke-width="1"/>
    <line x1="150" y1="0" x2="150" y2="1800" stroke="#e3e8ee" stroke-width="1"/>
    <line x1="250" y1="0" x2="250" y2="1800" stroke="#e3e8ee" stroke-width="1"/>
    <line x1="350" y1="0" x2="350" y2="1800" stroke="#e3e8ee" stroke-width="1"/>
    <line x1="450" y1="0" x2="450" y2="1800" stroke="#e3e8ee" stroke-width="1"/>
    <line x1="550" y1="0" x2="550" y2="1800" stroke="#e3e8ee" stroke-width="1"/>
    <line x1="650" y1="0" x2="650" y2="1800" stroke="#e3e8ee" stroke-width="1"/>
    <line x1="750" y1="0" x2="750" y2="1800" stroke="#e3e8ee" stroke-width="1"/>
    <line x1="850" y1="0" x2="850" y2="1800" stroke="#e3e8ee" stroke-width="1"/>
    <line x1="950" y1="0" x2="950" y2="1800" stroke="#e3e8ee" stroke-width="1"/>
    <line x1="1050" y1="0" x2="1050" y2="1800" stroke="#e3e8ee" stroke-width="1"/>
    <line x1="150" y1="0" x2="150" y2="1800" stroke="#9aa8b8" stroke-width="2"/>
    <line x1="1061" y1="0" x2="1061" y2="1800" stroke="#9aa8b8" stroke-width="2" stroke-dasharray="12 12"/>
    <line x1="0" y1="150" x2="1211" y2="150" stroke="#5b7fa6" stroke-width="2"/>
    <text x="8" y="142" font-family="sans-serif" font-size="28" fill="#5b7fa6">top 1000</text>
    <line x1="0" y1="650" x2="1211" y2="650" stroke="#5b7fa6" stroke-width="2" stroke-dasharray="24 16"/>
    <text x="8" y="642" font-family="sans-serif" font-size="28" fill="#5b7fa6">mid 500</text>
    <line x1="0" y1="1150" x2="1211" y2="1150" stroke="#1f3a5f" stroke-width="2"/>
    <text x="8" y="1142" font-family="sans-serif" font-size="28" fill="#1f3a5f">base 0</text>
    <line x1="0" y1="1650" x2="1211" y2="1650" stroke="#9aa8b8" stroke-width="2"/>
    <text x="8" y="1642" font-family="sans-serif" font-size="28" fill="#9aa8b8">tail -500</text>
  </g>
  <g inkscape:groupmode="layer" id="outline-body" inkscape:label="outline (body)" sodipodi:insensitive="true">
    <path d="M 927.6144 857.7472 L 927.6144 224 C 927.6144 206 912.6144 197 883.7152 197 C 854.7152 197 839.7152 206 839.7152 224 L 839.7152 857.7472 C 839.7152 999.952 754.6831999999999 1084 607.8896 1084 C 458.096 1084 371.06399999999996 999.952 371.06399999999996 857.7472 L 371.06399999999996 224 C 371.06399999999996 206 356.06399999999996 197 327.06399999999996 197 C 298.06399999999996 197 283.06399999999996 206 283.06399999999996 224 L 283.06399999999996 857.7472 C 283.06399999999996 1053.1536 405.39840000000004 1169 607.8896 1169 C 808.0784 1169 927.6144 1053.1536 927.6144 857.7472 Z" fill="#c9d3df" fill-rule="evenodd"/>
  </g>
  <g inkscape:groupmode="layer" id="outline-reach" inkscape:label="outline (reach)" sodipodi:insensitive="true">
    <path d="M 927.6144 857.7472 L 927.6144 179.8013245033112 C 927.6144 159.93377483443703 912.6144 150 883.7152 150 C 854.7152 150 839.7152 159.93377483443703 839.7152 179.8013245033112 L 839.7152 857.7472 C 839.7152 999.952 754.6831999999999 1084 607.8896 1084 C 458.096 1084 371.06399999999996 999.952 371.06399999999996 857.7472 L 371.06399999999996 179.8013245033112 C 371.06399999999996 159.93377483443703 356.06399999999996 150 327.06399999999996 150 C 298.06399999999996 150 283.06399999999996 159.93377483443703 283.06399999999996 179.8013245033112 L 283.06399999999996 857.7472 C 283.06399999999996 1053.1536 405.39840000000004 1169 607.8896 1169 C 808.0784 1169 927.6144 1053.1536 927.6144 857.7472 Z" fill="none" stroke="#d99a9a" stroke-width="3" stroke-dasharray="10 8" fill-rule="evenodd"/>
  </g>
  <g inkscape:groupmode="layer" id="notes" inkscape:label="notes" sodipodi:insensitive="true">
    <text x="150" y="40" font-family="sans-serif" font-size="30" fill="#1f3a5f">School Skills Cursive, unlooped — U_</text>
    <text x="150" y="76" font-family="sans-serif" font-size="22" fill="#5b7fa6">Draw in the "strokes" layer with the pen tool: one open path per pen stroke, in the order the pen makes them. Grey is the shape; red dashes are how far the tall or hanging part goes.</text>
    <text x="150" y="1780" font-family="sans-serif" font-size="22" fill="#5b7fa6">Ink starts wherever you like: the ingest sets the side bearings.</text>
  </g>
  <g inkscape:groupmode="layer" id="strokes" inkscape:label="strokes">
    <path id="stroke-1" inkscape:label="stroke-1" d="M 217.2 150 L 217.2 850 C 217.2 1015.7 347.6 1150 508.4 1150 C 669.2 1150 799.6 1015.7 799.6 850 L 799.6 150" fill="none" stroke="#111" stroke-width="44" stroke-linecap="round" stroke-linejoin="round"/>
  </g>
</svg>
