<?xml version="1.0" encoding="UTF-8"?>
<svg xmlns="http://www.w3.org/2000/svg" xmlns:inkscape="http://www.inkscape.org/namespaces/inkscape" xmlns:sodipodi="http://sodipodi.sourceforge.net/DTD/sodipodi-0.dtd"
  width="411" height="900" viewBox="0 0 822 1800"
  data-hand="print" data-glyph="x" data-units="1000" data-origin="150" data-baseline="1150">
  <sodipodi:namedview id="namedview" inkscape:current-layer="strokes" inkscape:document-units="px"/>
  <g inkscape:groupmode="layer" id="ruling" inkscape:label="ruling" sodipodi:insensitive="true">
    <line x1="0" y1="1550" x2="822" y2="1550" stroke="#e3e8ee" stroke-width="1"/>
    <line x1="0" y1="1450" x2="822" y2="1450" stroke="#e3e8ee" stroke-width="1"/>
    <line x1="0" y1="1350" x2="822" y2="1350" stroke="#e3e8ee" stroke-width="1"/>
    <line x1="0" y1="1250" x2="822" y2="1250" stroke="#e3e8ee" stroke-width="1"/>
    <line x1="0" y1="1050" x2="822" y2="1050" stroke="#e3e8ee" stroke-width="1"/>
    <line x1="0" y1="950" x2="822" y2="950" stroke="#e3e8ee" stroke-width="1"/>
    <line x1="0" y1="850" x2="822" y2="850" stroke="#e3e8ee" stroke-width="1"/>
    <line x1="0" y1="750" x2="822" y2="750" stroke="#e3e8ee" stroke-width="1"/>
    <line x1="0" y1="550" x2="822" y2="550" stroke="#e3e8ee" stroke-width="1"/>
    <line x1="0" y1="450" x2="822" y2="450" stroke="#e3e8ee" stroke-width="1"/>
    <line x1="0" y1="350" x2="822" y2="350" stroke="#e3e8ee" stroke-width="1"/>
    <line x1="0" y1="250" x2="822" y2="250" stroke="#e3e8ee" stroke-width="1"/>
    <line x1="150" y1="0" x2="150" y2="1800" stroke="#e3e8ee" stroke-width="1"/>
    <line x1="250" y1="0" x2="250" y2="1800" stroke="#e3e8ee" stroke-width="1"/>
    <line x1="350" y1="0" x2="350" y2="1800" stroke="#e3e8ee" stroke-width="1"/>
    <line x1="450" y1="0" x2="450" y2="1800" stroke="#e3e8ee" stroke-width="1"/>
    <line x1="550" y1="0" x2="550" y2="1800" stroke="#e3e8ee" stroke-width="1"/>
    <line x1="650" y1="0" x2="650" y2="1800" stroke="#e3e8ee" stroke-width="1"/>
    <line x1="150" y1="0" x2="150" y2="1800" stroke="#9aa8b8" stroke-width="2"/>
    <line x1="672" y1="0" x2="672" y2="1800" stroke="#9aa8b8" stroke-width="2" stroke-dasharray="12 12"/>
    <line x1="0" y1="150" x2="822" y2="150" stroke="#5b7fa6" stroke-width="2"/>
    <text x="8" y="142" font-family="sans-serif" font-size="28" fill="#5b7fa6">top 1000</text>
    <line x1="0" y1="650" x2="822" y2="650" stroke="#5b7fa6" stroke-width="2" stroke-dasharray="24 16"/>
    <text x="8" y="642" font-family="sans-serif" font-size="28" fill="#5b7fa6">mid 500</text>
    <line x1="0" y1="1150" x2="822" y2="1150" stroke="#1f3a5f" stroke-width="2"/>
    <text x="8" y="1142" font-family="sans-serif" font-size="28" fill="#1f3a5f">base 0</text>
    <line x1="0" y1="1650" x2="822" y2="1650" stroke="#9aa8b8" stroke-width="2"/>
    <text x="8" y="1642" font-family="sans-serif" font-size="28" fill="#9aa8b8">tail -500</text>
  </g>
  <g inkscape:groupmode="layer" id="outline-body" inkscape:label="outline (body)" sodipodi:insensitive="true">
    <path d="M 537.0192307692307 1150 L 647.5961538461538 1150 C 596.1538461538462 1082.2115384615386 583.6538461538462 1068.2692307692307 549.0384615384615 1020.1923076923076 L 289.4230769230769 659.6153846153845 L 178.84615384615384 659.6153846153845 C 230.76923076923077 723.5576923076924 247.59615384615387 744.7115384615385 279.8076923076923 789.4230769230769 L 537.0192307692307 1150 Z M 385.0961538461538 853.8461538461538 L 270.1923076923077 1020.1923076923076 C 240.8653846153846 1062.5 226.9230769230769 1081.25 174.03846153846155 1150 L 282.21153846153845 1150 L 417.3076923076923 955.7692307692307 L 385.0961538461538 853.8461538461538 Z M 431.25 955.2884615384615 L 544.2307692307693 789.4230769230769 C 574.5192307692307 745.1923076923076 591.3461538461538 723.0769230769231 640.3846153846155 659.6153846153845 L 532.2115384615385 659.6153846153845 L 400 854.3269230769231 L 431.25 955.2884615384615 Z" fill="#c9d3df" fill-rule="evenodd"/>
  </g>
  <g inkscape:groupmode="layer" id="outline-reach" inkscape:label="outline (reach)" sodipodi:insensitive="true">
    <path d="M 537.0192307692307 1150 L 647.5961538461538 1150 C 596.1538461538462 1082.2115384615386 583.6538461538462 1068.2692307692307 549.0384615384615 1020.1923076923076 L 289.4230769230769 659.6153846153845 L 178.84615384615384 659.6153846153845 C 230.76923076923077 723.5576923076924 247.59615384615387 744.7115384615385 279.8076923076923 789.4230769230769 L 537.0192307692307 1150 Z M 385.0961538461538 853.8461538461538 L 270.1923076923077 1020.1923076923076 C 240.8653846153846 1062.5 226.9230769230769 1081.25 174.03846153846155 1150 L 282.21153846153845 1150 L 417.3076923076923 955.7692307692307 L 385.0961538461538 853.8461538461538 Z M 431.25 955.2884615384615 L 544.2307692307693 789.4230769230769 C 574.5192307692307 745.1923076923076 591.3461538461538 723.0769230769231 640.3846153846155 659.6153846153845 L 532.2115384615385 659.6153846153845 L 400 854.3269230769231 L 431.25 955.2884615384615 Z" fill="none" stroke="#d99a9a" stroke-width="3" stroke-dasharray="10 8" fill-rule="evenodd"/>
  </g>
  <g inkscape:groupmode="layer" id="notes" inkscape:label="notes" sodipodi:insensitive="true">
    <text x="150" y="40" font-family="sans-serif" font-size="30" fill="#1f3a5f">School Skills Print — x</text>
    <text x="150" y="76" font-family="sans-serif" font-size="22" fill="#5b7fa6">Draw in the "strokes" layer with the pen tool: one open path per pen stroke, in the order the pen makes them. Grey is the shape; red dashes are how far the tall or hanging part goes.</text>
    <text x="150" y="1780" font-family="sans-serif" font-size="22" fill="#5b7fa6">Ink starts wherever you like: the ingest sets the side bearings.</text>
  </g>
  <g inkscape:groupmode="layer" id="strokes" inkscape:label="strokes">
    <path id="stroke-1" d="M 180 650 L 600 1150" fill="none" stroke="#111" stroke-width="44" stroke-linecap="round" stroke-linejoin="round"/>
    <path id="stroke-2" d="M 600 650 L 180 1150" fill="none" stroke="#111" stroke-width="44" stroke-linecap="round" stroke-linejoin="round"/>
  </g>
</svg>
