<?xml version="1.0" encoding="UTF-8"?>
<svg xmlns="http://www.w3.org/2000/svg" xmlns:inkscape="http://www.inkscape.org/namespaces/inkscape" xmlns:sodipodi="http://sodipodi.sourceforge.net/DTD/sodipodi-0.dtd"
  width="461" height="900" viewBox="0 0 922 1800"
  data-hand="cursive" data-glyph="a" data-units="1000" data-origin="150" data-baseline="1150">
  <sodipodi:namedview id="namedview" inkscape:current-layer="strokes" inkscape:document-units="px"/>
  <g inkscape:groupmode="layer" id="ruling" inkscape:label="ruling" sodipodi:insensitive="true">
    <line x1="0" y1="1550" x2="922" y2="1550" stroke="#e3e8ee" stroke-width="1"/>
    <line x1="0" y1="1450" x2="922" y2="1450" stroke="#e3e8ee" stroke-width="1"/>
    <line x1="0" y1="1350" x2="922" y2="1350" stroke="#e3e8ee" stroke-width="1"/>
    <line x1="0" y1="1250" x2="922" y2="1250" stroke="#e3e8ee" stroke-width="1"/>
    <line x1="0" y1="1050" x2="922" y2="1050" stroke="#e3e8ee" stroke-width="1"/>
    <line x1="0" y1="950" x2="922" y2="950" stroke="#e3e8ee" stroke-width="1"/>
    <line x1="0" y1="850" x2="922" y2="850" stroke="#e3e8ee" stroke-width="1"/>
    <line x1="0" y1="750" x2="922" y2="750" stroke="#e3e8ee" stroke-width="1"/>
    <line x1="0" y1="550" x2="922" y2="550" stroke="#e3e8ee" stroke-width="1"/>
    <line x1="0" y1="450" x2="922" y2="450" stroke="#e3e8ee" stroke-width="1"/>
    <line x1="0" y1="350" x2="922" y2="350" stroke="#e3e8ee" stroke-width="1"/>
    <line x1="0" y1="250" x2="922" y2="250" stroke="#e3e8ee" stroke-width="1"/>
    <line x1="150" y1="0" x2="150" y2="1800" stroke="#e3e8ee" stroke-width="1"/>
    <line x1="250" y1="0" x2="250" y2="1800" stroke="#e3e8ee" stroke-width="1"/>
    <line x1="350" y1="0" x2="350" y2="1800" stroke="#e3e8ee" stroke-width="1"/>
    <line x1="450" y1="0" x2="450" y2="1800" stroke="#e3e8ee" stroke-width="1"/>
    <line x1="550" y1="0" x2="550" y2="1800" stroke="#e3e8ee" stroke-width="1"/>
    <line x1="650" y1="0" x2="650" y2="1800" stroke="#e3e8ee" stroke-width="1"/>
    <line x1="750" y1="0" x2="750" y2="1800" stroke="#e3e8ee" stroke-width="1"/>
    <line x1="150" y1="0" x2="150" y2="1800" stroke="#9aa8b8" stroke-width="2"/>
    <line x1="772" y1="0" x2="772" y2="1800" stroke="#9aa8b8" stroke-width="2" stroke-dasharray="12 12"/>
    <line x1="0" y1="150" x2="922" y2="150" stroke="#5b7fa6" stroke-width="2"/>
    <text x="8" y="142" font-family="sans-serif" font-size="28" fill="#5b7fa6">top 1000</text>
    <line x1="0" y1="650" x2="922" y2="650" stroke="#5b7fa6" stroke-width="2" stroke-dasharray="24 16"/>
    <text x="8" y="642" font-family="sans-serif" font-size="28" fill="#5b7fa6">mid 500</text>
    <line x1="0" y1="1150" x2="922" y2="1150" stroke="#1f3a5f" stroke-width="2"/>
    <text x="8" y="1142" font-family="sans-serif" font-size="28" fill="#1f3a5f">base 0</text>
    <line x1="0" y1="1650" x2="922" y2="1650" stroke="#9aa8b8" stroke-width="2"/>
    <text x="8" y="1642" font-family="sans-serif" font-size="28" fill="#9aa8b8">tail -500</text>
  </g>
  <g inkscape:groupmode="layer" id="outline-body" inkscape:label="outline (body)" sodipodi:insensitive="true">
    <path d="M 530 992 C 529 996 528 999 526 1002 C 505 1065 485 1165 585 1165 C 658 1165 709 1100 728 1069 C 735 1056 731 1042 710 1029 C 695 1019 685 1021 675 1034 C 646 1069 625 1089 605 1089 C 594 1089 586 1084 599 1047 L 724 674 C 733 647 724 635 683 635 C 660 635 648 637 641 656 L 640 660 C 600 641 555 631 518 631 C 306 631 185 867 185 1020 C 185 1111 230 1167 298 1167 C 366 1167 445 1110 530 992 Z M 504 710 C 535 710 573 714 616 731 L 605 764 C 499 972 396 1087 326 1087 C 295 1087 276 1055 276 1004 C 276 897 360 710 504 710 Z" fill="#c9d3df" fill-rule="evenodd"/>
  </g>
  <g inkscape:groupmode="layer" id="outline-reach" inkscape:label="outline (reach)" sodipodi:insensitive="true">
    <path d="M 530 992 C 529 996 528 999 526 1002 C 505 1065 485 1165 585 1165 C 658 1165 709 1100 728 1069 C 735 1056 731 1042 710 1029 C 695 1019 685 1021 675 1034 C 646 1069 625 1089 605 1089 C 594 1089 586 1084 599 1047 L 724 674 C 733 647 724 635 683 635 C 660 635 648 637 641 656 L 640 660 C 600 641 555 631 518 631 C 306 631 185 867 185 1020 C 185 1111 230 1167 298 1167 C 366 1167 445 1110 530 992 Z M 504 710 C 535 710 573 714 616 731 L 605 764 C 499 972 396 1087 326 1087 C 295 1087 276 1055 276 1004 C 276 897 360 710 504 710 Z" fill="none" stroke="#d99a9a" stroke-width="3" stroke-dasharray="10 8" fill-rule="evenodd"/>
  </g>
  <g inkscape:groupmode="layer" id="notes" inkscape:label="notes" sodipodi:insensitive="true">
    <text x="150" y="40" font-family="sans-serif" font-size="30" fill="#1f3a5f">School Skills Cursive — a</text>
    <text x="150" y="76" font-family="sans-serif" font-size="22" fill="#5b7fa6">Draw in the "strokes" layer with the pen tool: one open path per pen stroke, in the order the pen makes them. Grey is the shape; red dashes are how far the tall or hanging part goes.</text>
    <text x="150" y="1780" font-family="sans-serif" font-size="22" fill="#5b7fa6">Ink starts wherever you like: the ingest sets the side bearings.</text>
  </g>
  <g inkscape:groupmode="layer" id="strokes" inkscape:label="strokes">
    <path id="top" inkscape:label="top" d="M 643.2 679.3 C 607.8 660 564.6 650 517.5 650 C 414.7 650 295.1 761.9 250.2 900" fill="none" stroke="#111" stroke-width="44" stroke-linecap="round" stroke-linejoin="round"/>
    <path id="body" inkscape:label="body" d="M 250.2 900 C 205.4 1038.1 227.7 1150 300 1150 C 360 1150 598 916 656.5 736 L 684.5 650 L 539.9 1095 C 530 1125.4 546.6 1150 577 1150 C 579.8 1150 582.6 1149.8 585.4 1149.4" fill="none" stroke="#111" stroke-width="44" stroke-linecap="round" stroke-linejoin="round"/>
    <path id="tail" inkscape:label="tail" d="M 585.4 1149.4 C 671.5 1137 762.1 1011.9 816.7 899.4" fill="none" stroke="#111" stroke-width="44" stroke-linecap="round" stroke-linejoin="round"/>
  </g>
</svg>
