<?xml version="1.0" encoding="UTF-8"?>
<svg xmlns="http://www.w3.org/2000/svg" xmlns:inkscape="http://www.inkscape.org/namespaces/inkscape" xmlns:sodipodi="http://sodipodi.sourceforge.net/DTD/sodipodi-0.dtd"
  width="434" height="900" viewBox="0 0 868 1800"
  data-hand="cursive" data-glyph="r" data-units="1000" data-origin="150" data-baseline="1150">
  <sodipodi:namedview id="namedview" inkscape:current-layer="strokes" inkscape:document-units="px"/>
  <g inkscape:groupmode="layer" id="ruling" inkscape:label="ruling" sodipodi:insensitive="true">
    <line x1="0" y1="1550" x2="868" y2="1550" stroke="#e3e8ee" stroke-width="1"/>
    <line x1="0" y1="1450" x2="868" y2="1450" stroke="#e3e8ee" stroke-width="1"/>
    <line x1="0" y1="1350" x2="868" y2="1350" stroke="#e3e8ee" stroke-width="1"/>
    <line x1="0" y1="1250" x2="868" y2="1250" stroke="#e3e8ee" stroke-width="1"/>
    <line x1="0" y1="1050" x2="868" y2="1050" stroke="#e3e8ee" stroke-width="1"/>
    <line x1="0" y1="950" x2="868" y2="950" stroke="#e3e8ee" stroke-width="1"/>
    <line x1="0" y1="850" x2="868" y2="850" stroke="#e3e8ee" stroke-width="1"/>
    <line x1="0" y1="750" x2="868" y2="750" stroke="#e3e8ee" stroke-width="1"/>
    <line x1="0" y1="550" x2="868" y2="550" stroke="#e3e8ee" stroke-width="1"/>
    <line x1="0" y1="450" x2="868" y2="450" stroke="#e3e8ee" stroke-width="1"/>
    <line x1="0" y1="350" x2="868" y2="350" stroke="#e3e8ee" stroke-width="1"/>
    <line x1="0" y1="250" x2="868" y2="250" stroke="#e3e8ee" stroke-width="1"/>
    <line x1="150" y1="0" x2="150" y2="1800" stroke="#e3e8ee" stroke-width="1"/>
    <line x1="250" y1="0" x2="250" y2="1800" stroke="#e3e8ee" stroke-width="1"/>
    <line x1="350" y1="0" x2="350" y2="1800" stroke="#e3e8ee" stroke-width="1"/>
    <line x1="450" y1="0" x2="450" y2="1800" stroke="#e3e8ee" stroke-width="1"/>
    <line x1="550" y1="0" x2="550" y2="1800" stroke="#e3e8ee" stroke-width="1"/>
    <line x1="650" y1="0" x2="650" y2="1800" stroke="#e3e8ee" stroke-width="1"/>
    <line x1="150" y1="0" x2="150" y2="1800" stroke="#9aa8b8" stroke-width="2"/>
    <line x1="718" y1="0" x2="718" y2="1800" stroke="#9aa8b8" stroke-width="2" stroke-dasharray="12 12"/>
    <line x1="0" y1="150" x2="868" y2="150" stroke="#5b7fa6" stroke-width="2"/>
    <text x="8" y="142" font-family="sans-serif" font-size="28" fill="#5b7fa6">top 1000</text>
    <line x1="0" y1="650" x2="868" y2="650" stroke="#5b7fa6" stroke-width="2" stroke-dasharray="24 16"/>
    <text x="8" y="642" font-family="sans-serif" font-size="28" fill="#5b7fa6">mid 500</text>
    <line x1="0" y1="1150" x2="868" y2="1150" stroke="#1f3a5f" stroke-width="2"/>
    <text x="8" y="1142" font-family="sans-serif" font-size="28" fill="#1f3a5f">base 0</text>
    <line x1="0" y1="1650" x2="868" y2="1650" stroke="#9aa8b8" stroke-width="2"/>
    <text x="8" y="1642" font-family="sans-serif" font-size="28" fill="#9aa8b8">tail -500</text>
  </g>
  <g inkscape:groupmode="layer" id="outline-body" inkscape:label="outline (body)" sodipodi:insensitive="true">
    <path d="M 389 737 L 334 710 C 188 987 79 1092 -14 1092 C -64 1092 -81 1167 -31 1167 C 111 1167 230 1059 389 737 Z M 673 1069 C 680 1056 676 1042 655 1029 C 639 1019 630 1021 620 1034 C 593 1069 573 1089 553 1089 C 541 1089 531 1084 544 1046 C 563 989 623 852 643 777 C 669 680 641 637 580 637 C 510 637 434 681 414 681 C 423 660 428 639 428 621 C 428 594 411 575 384 575 C 335 575 315 616 315 657 C 315 709 338 760 374 760 C 436 760 489 722 536 722 C 564 722 569 735 558 775 C 534 854 479 981 464 1025 C 446 1076 430 1165 530 1165 C 603 1165 654 1100 673 1069 Z" fill="#c9d3df" fill-rule="evenodd"/>
  </g>
  <g inkscape:groupmode="layer" id="outline-reach" inkscape:label="outline (reach)" sodipodi:insensitive="true">
    <path d="M 389 737 L 334 710 C 188 987 79 1092 -14 1092 C -64 1092 -81 1167 -31 1167 C 111 1167 230 1059 389 737 Z M 673 1069 C 680 1056 676 1042 655 1029 C 639 1019 630 1021 620 1034 C 593 1069 573 1089 553 1089 C 541 1089 531 1084 544 1046 C 563 989 623 852 643 777 C 669 680 641 637 580 637 C 510 637 434 681 414 681 C 423 660 428 639 428 621 C 428 594 411 575 384 575 C 335 575 315 616 315 657 C 315 709 338 760 374 760 C 436 760 489 722 536 722 C 564 722 569 735 558 775 C 534 854 479 981 464 1025 C 446 1076 430 1165 530 1165 C 603 1165 654 1100 673 1069 Z" fill="none" stroke="#d99a9a" stroke-width="3" stroke-dasharray="10 8" fill-rule="evenodd"/>
  </g>
  <g inkscape:groupmode="layer" id="notes" inkscape:label="notes" sodipodi:insensitive="true">
    <text x="150" y="40" font-family="sans-serif" font-size="30" fill="#1f3a5f">School Skills Cursive — r</text>
    <text x="150" y="76" font-family="sans-serif" font-size="22" fill="#5b7fa6">Draw in the "strokes" layer with the pen tool: one open path per pen stroke, in the order the pen makes them. Grey is the shape; red dashes are how far the tall or hanging part goes.</text>
    <text x="150" y="1780" font-family="sans-serif" font-size="22" fill="#5b7fa6">Ink starts wherever you like: the ingest sets the side bearings.</text>
  </g>
  <g inkscape:groupmode="layer" id="strokes" inkscape:label="strokes">
    <path id="lead" inkscape:label="lead" d="M -80 1150 C 54.6 1125 211.8 875 312.5 650" fill="none" stroke="#111" stroke-width="44" stroke-linecap="round" stroke-linejoin="round"/>
    <path id="body" inkscape:label="body" d="M 312.5 650 C 370.6 625 435.6 625 449.3 675 L 295 1150" fill="none" stroke="#111" stroke-width="44" stroke-linecap="round" stroke-linejoin="round"/>
    <path id="tail" inkscape:label="tail" d="M 295 1150 C 381.6 1137.5 471.7 1012.5 526.2 900" fill="none" stroke="#111" stroke-width="44" stroke-linecap="round" stroke-linejoin="round"/>
  </g>
</svg>
